General
Complete name                : Fake.Taxi.E.20.Anna.1080p.Happyviking.mov
Format                       : MPEG-4
Format profile               : QuickTime
Codec ID                     : qt  
File size                    : 806 MiB
Duration                     : 27mn 14s
Overall bit rate             : 4 136 Kbps
Encoded date                 : UTC 2013-05-07 18:09:23
Tagged date                  : UTC 2013-05-07 18:09:23
Writing application          : Lavf53.32.100

Video
ID                           : 1
Format                       : AVC
Format/Info                  : Advanced Video Codec
Format profile               : High@L3.0
Format settings, CABAC       : Yes
Format settings, ReFrames    : 4 frames
Codec ID                     : avc1
Codec ID/Info                : Advanced Video Coding
Duration                     : 27mn 14s
Bit rate                     : 4 000 Kbps
Width                        : 1 280 pixels
Height                       : 720 pixels
Display aspect ratio         : 16:9
Frame rate mode              : Constant
Frame rate                   : 24.000 fps
Color space                  : YUV
Chroma subsampling           : 4:2:0
Bit depth                    : 8 bits
Scan type                    : Progressive
Bits/(Pixel*Frame)           : 0.181
Stream size                  : 780 MiB (97%)
Writing library              : x264 core 120
Encoding settings            : cabac=1 / ref=4 / deblock=1:0:0 / 

Audio
ID                           : 2
Format                       : AAC
Format/Info                  : Advanced Audio Codec
Format profile               : LC
Codec ID                     : 40
Duration                     : 27mn 14s
Bit rate mode                : Constant
Bit rate                     : 128 Kbps
Channel(s)                   : 2 channels
Channel positions            : Front: L R
Sampling rate                : 44.1 KHz
Compression mode             : Lossy
Delay relative to video      : 83ms
Stream size                  : 24.9 MiB (3%)
Language                     : English
Encoded date                 : UTC 2013-05-07 18:09:23
Tagged date                  : UTC 2013-05-07 18:09:23
